<svg width="1427" height="382" viewBox="0 0 1427 382" fill="none" xmlns="http://www.w3.org/2000/svg">
<path d="M478.612 3.8283C450.561 2.43607 421.426 6.48316 399.085 22.9201C376.443 39.153 366.389 67.9826 365.99 96.1041C365.689 108.256 366.722 120.127 368.672 132.421C375.05 161.289 410.48 171.198 437.283 178.603C465.65 185.703 496.263 189.466 524.987 192.016C596.282 198.028 667.051 197.571 738.315 195.555C809.527 193.388 880.574 189.08 951.586 183.653C1022.4 178.219 1093.54 171.574 1164.37 164.122C1212.5 159.055 1260.4 153.621 1308.55 147.783C1329.66 145.22 1349.98 142.69 1371.79 139.878C1386.34 138.007 1403.59 135.734 1418.94 133.636C1420.1 133.476 1421.11 133.343 1421.93 133.239C1422.34 133.186 1422.71 133.141 1423.04 133.103C1423.2 133.084 1423.35 133.066 1423.5 133.051C1423.83 133.008 1424.25 132.954 1424.54 132.916C1425.78 132.76 1426.19 132.724 1426.37 132.721C1426.54 132.72 1426.5 132.75 1426.51 132.774C1426.51 132.799 1426.55 132.818 1426.39 132.865C1426.21 132.913 1425.8 132.994 1424.55 133.189C1424.4 133.213 1424.23 133.239 1424.05 133.267C1423.96 133.281 1423.86 133.295 1423.76 133.31C1423.68 133.324 1423.53 133.346 1423.53 133.347C1423.38 133.372 1423.23 133.397 1423.07 133.424C1422.74 133.477 1422.37 133.536 1421.96 133.599C1421.14 133.726 1420.13 133.875 1418.97 134.04C1403.52 136.234 1386.03 138.621 1371.45 140.576C1367.13 141.157 1362.35 141.792 1357.8 142.393C1353.71 142.934 1349.47 143.492 1345.08 144.066C1336.16 145.232 1327.12 146.398 1318.68 147.475C1315.91 147.616 1312.14 147.931 1304.76 148.775C1300.85 149.223 1295.73 149.837 1291.96 150.335C1288.55 150.785 1285.95 151.163 1283.46 151.523C1280.85 151.9 1278.35 152.259 1275.1 152.671C1269.61 153.366 1264.02 154.119 1258.94 154.812C1257.03 155.072 1255.06 155.338 1253.02 155.61C1236.35 157.616 1219.29 159.618 1202.64 161.526C1196.13 162.235 1189.97 162.9 1184.84 163.473C1180.41 163.969 1176.32 164.459 1172.22 164.958C1169.64 165.245 1167.05 165.531 1164.45 165.818C1147.45 167.69 1130.85 169.47 1113.99 171.224C1100.63 172.526 1087.12 173.823 1069.18 175.524C1061.48 176.253 1053.63 176.965 1046.43 177.605C1035.72 178.559 1025.55 179.441 1016.6 180.265C1010.64 180.814 1004.22 181.346 998.056 181.848C989.711 182.528 981.345 183.192 973.749 183.897C968.974 184.34 964.58 184.756 960.506 185.139C954 185.75 948.41 186.267 943.296 186.668C933.704 187.421 925.382 188.108 918.044 188.702C909.217 189.415 901.811 189.994 895.304 190.381C894.318 190.44 893.188 190.505 891.917 190.578C885.218 190.959 874.497 191.566 859.161 192.582C853.702 192.943 848.521 193.316 843.484 193.671C836.142 194.188 829.025 194.673 821.416 195.044C820.28 195.099 819.092 195.139 818.012 195.174C816.638 195.22 815.438 195.258 814.73 195.316C812.643 195.486 809.387 195.721 805.75 195.976C803.084 196.163 800.262 196.359 797.664 196.543C777.77 197.531 758.267 198.358 738.271 199.024C729.18 199.326 720.229 199.586 711.203 199.807C706.486 199.823 701.684 199.84 696.643 199.867C690.055 199.903 681.55 200.011 670.766 200.065C662.838 200.104 653.062 200.115 642.213 200.009C622.475 199.834 600.865 199.377 587.987 198.971C585.185 198.886 582.605 198.804 579.412 198.691C567.285 198.205 554.096 197.851 526.134 195.632C501.008 193.578 479.098 190.653 462.415 187.617C453.916 186.076 447.649 184.723 442.341 183.492C432.471 181.159 423.102 178.695 411.494 174.404C395.27 168.638 379.111 158.499 372.848 149.882C370.708 147.208 368.434 143.633 366.934 139.654C366.147 137.585 365.53 135.37 365.142 132.979C363.549 122.783 362.029 111.375 362.347 95.791C363.002 75.9038 366.352 63.5802 371.495 51.7835C373.632 47.0458 376.016 42.9484 378.721 39.0792C382.651 33.5359 387.25 28.1152 394.626 22.0556C396.356 20.6482 398.252 19.215 400.301 17.8115C404.059 15.233 408.351 12.7639 412.946 10.6749C414.558 9.94209 415.979 9.36135 417.393 8.81477C418.947 8.21558 420.491 7.659 422.247 7.05255C428.757 4.80175 435.347 3.241 441.195 2.22406C448.787 0.900514 455.204 0.430425 459.184 0.233653C466.295 -0.1166 474.066 -0.0872614 481.919 0.418274C487.914 0.800289 493.945 1.4511 499.757 2.32773C514.039 4.46159 532.788 8.69617 551.641 16.0591C554.698 17.2526 557.722 18.5953 560.694 20.0766C568.789 24.166 575.262 28.4147 582.841 34.6604C587.53 38.5749 592.628 43.3187 598.302 49.8091C601.509 53.4923 604.091 56.7313 606.379 59.8045C608.484 62.6397 610.336 65.3397 612.097 68.2036C613.642 70.7258 614.515 72.4024 615.322 73.9824C616.214 75.7467 617.045 77.4226 618.438 80.2007C619.181 81.6898 620.076 83.4826 621.081 85.6668C621.479 86.5303 621.893 87.4553 622.316 88.437C622.282 88.3921 622.265 88.3847 622.255 88.3878C622.187 88.4051 623.377 91.372 624.377 94.3132C624.782 95.4929 625.166 96.6776 625.464 97.6493C626.599 101.223 628.45 108.074 629.348 113.442C629.742 115.697 630.021 117.774 630.259 120.186C630.468 122.343 630.648 124.757 630.726 127.864C630.767 129.62 630.739 130.996 630.702 132.116C630.674 132.928 630.64 133.617 630.61 134.254C630.583 134.811 630.58 135.263 630.572 135.77C630.566 136.134 630.557 136.53 630.532 137.014C630.474 138.171 630.334 139.653 630.196 140.696C630.133 141.176 630.076 141.554 630.016 141.928C629.947 142.365 629.875 142.797 629.779 143.393C629.331 146.142 628.794 148.787 628.072 151.511C627.938 152.015 627.798 152.521 627.65 153.029C626.923 155.534 626.1 158.127 625.091 160.912C624.708 161.966 624.282 163.08 623.858 164.153C623.414 165.277 622.97 166.362 622.592 167.283C621.059 171.027 619.541 174.503 618.045 177.673C617.05 179.779 616.068 181.747 615.107 183.548C613.34 186.847 612.361 188.608 611.645 189.911C611.272 190.585 610.964 191.133 610.626 191.699C610.31 192.215 609.987 192.736 609.667 193.245C609.371 193.711 609.07 194.181 608.787 194.629C608.765 194.663 608.745 194.696 608.723 194.73C606.924 197.528 605.069 200.23 603.152 202.876C598.828 208.836 594.252 214.447 589.185 220.138C588.088 221.369 586.967 222.626 585.808 223.896C584.389 225.451 582.909 227.029 581.347 228.595C577.715 232.237 573.894 235.774 569.978 239.184C564.019 244.373 558.197 248.971 552.635 253.232C550.803 254.636 549.001 256.002 547.171 257.36C546.153 258.115 545.111 258.877 544.075 259.624C544.271 259.446 544.377 259.335 544.471 259.233C544.666 259.023 544.836 258.844 545.821 258.092C548.152 256.316 550.71 254.247 550.356 254.381C550.259 254.418 550.305 254.345 550.357 254.268C550.486 254.073 550.625 253.881 548.426 255.443C546.95 256.496 543.068 259.185 540.728 260.847C540.212 261.216 539.906 261.454 539.566 261.72C538.952 262.196 538.229 262.768 535.914 264.313C535.524 264.573 535.098 264.854 534.657 265.144C532.9 266.302 530.906 267.581 530.177 268.089C529.338 268.674 529.551 268.604 529.801 268.523C530.125 268.416 530.516 268.292 528.708 269.564C528.349 269.816 527.643 270.263 527.108 270.6C526.731 270.837 526.443 271.018 526.417 271.042C526.389 271.069 526.519 271.009 526.684 270.933C527.265 270.66 528.295 270.201 524.326 272.619C523.233 273.282 522.05 273.981 520.959 274.618C519.358 275.554 518.016 276.321 517.847 276.444C517.784 276.49 517.741 276.525 517.706 276.556C516.421 277.295 515.128 278.029 513.829 278.758C512.151 279.674 509.804 280.984 506.832 282.59C506.11 282.979 505.348 283.388 504.553 283.811C501.911 285.208 499.294 286.559 496.699 287.868C494.63 288.905 492.41 289.991 490.044 291.113C485.302 293.362 481.092 295.225 476.94 297.009C475.214 297.749 473.526 298.463 471.792 299.19C472.459 298.891 473.059 298.619 473.52 298.406C476.653 296.956 477.922 296.266 479.069 295.646C479.833 295.231 480.554 294.84 481.764 294.237C483.978 293.132 483.717 293.166 483.531 293.194C483.433 293.208 483.359 293.217 483.65 293.065C483.885 292.942 484.435 292.676 485.002 292.4C485.497 292.16 486.007 291.911 486.329 291.747C490.243 289.741 489.021 290.256 487.253 291.008C486.277 291.422 485.131 291.901 484.581 292.072C484.102 292.203 484.243 292.112 486.307 291.087C484.671 291.825 483.026 292.555 481.374 293.279C480.734 293.58 480.258 293.83 479.591 294.187C478.391 294.832 474.428 296.672 471.361 298.046C469.934 298.687 468.686 299.24 467.983 299.558C464.24 301.244 465.368 300.851 466.368 300.509C466.917 300.321 467.423 300.146 467.053 300.339C466.896 300.421 467.134 300.333 467.373 300.244C467.558 300.176 467.748 300.105 467.76 300.112C467.841 300.162 465.635 301.181 463.571 302.112C462.39 302.646 461.258 303.151 460.638 303.443C460.449 303.533 460.3 303.605 460.16 303.674C459.955 303.774 459.755 303.871 459.439 304.014C458.719 304.34 457.219 304.978 455.567 305.669C454.72 306.023 453.834 306.391 452.995 306.74C451.91 307.192 451.518 307.38 451.125 307.571C450.845 307.707 450.551 307.849 450.002 308.087C449.007 308.518 446.971 309.33 445.072 310.073C444.246 310.397 443.444 310.709 442.769 310.973C442.494 311.081 442.363 311.136 442.337 311.154C439.21 312.369 436.206 313.511 433.267 314.606C418.53 320.063 405.675 324.483 386.28 330.141C382.604 331.206 378.648 332.346 374.639 333.478C361.83 337.028 348.948 340.303 336.007 343.344C333.431 343.883 330.286 344.56 326.566 345.362C319.587 346.865 312.392 348.427 303.881 350.175C297.574 351.469 290.671 352.839 282.418 354.358C268.652 356.888 254.48 359.3 238.528 361.78C222.545 364.276 204.387 366.773 191.32 368.413C184.32 369.298 176.898 370.129 169.891 370.87C160.156 371.9 151.5 372.726 146.056 373.382C144.343 373.589 142.7 373.812 141.109 374.026C139.976 374.178 138.862 374.327 137.775 374.462C134.841 374.734 132.104 374.981 128.996 375.256C123.586 375.679 115.55 376.302 107.788 376.999C104.645 377.239 101.55 377.468 98.6113 377.677C92.2504 378.131 86.0745 378.54 79.5713 378.938C77.4925 379.065 75.4253 379.188 73.3869 379.305C73.3676 379.306 73.3483 379.307 73.329 379.308C69.4251 379.532 64.734 379.788 60.599 379.996C58.8062 380.087 57.0461 380.173 55.3198 380.254C51.2738 380.446 45.8468 380.686 41.6086 380.85C39.2296 380.943 37.2319 381.017 34.4802 381.115C30.2408 381.263 26.7847 381.368 22.7433 381.478C19.2222 381.574 16.3311 381.64 13.3039 381.699C11.4708 381.735 9.81516 381.763 8.34414 381.785C7.60559 381.796 6.9294 381.804 6.26791 381.812C5.23028 381.826 4.31583 381.836 3.52875 381.843C3.01352 381.848 2.56514 381.849 2.19472 381.847C2.00932 381.846 1.84299 381.844 1.69525 381.842C1.64713 381.842 1.65983 381.84 1.55433 381.84C1.45423 381.84 1.36056 381.84 1.27296 381.84C1.09775 381.839 0.946842 381.838 0.817062 381.837C-0.189314 381.826 0.0415325 381.8 3.43961e-06 381.777C0.041222 381.753 -0.188947 381.733 0.828263 381.708C0.95922 381.705 1.11134 381.702 1.28778 381.698C1.376 381.696 1.47029 381.695 1.571 381.693C1.65164 381.691 1.65607 381.69 1.70032 381.689C1.84832 381.684 2.01484 381.679 2.20038 381.674C2.57108 381.664 3.0195 381.655 3.53476 381.647C4.32302 381.634 5.23884 381.619 6.27806 381.599C6.92931 381.586 7.61378 381.571 8.35148 381.555C9.82427 381.522 11.482 381.482 13.3176 381.434C16.3368 381.353 19.2389 381.265 22.7612 381.147C26.7917 381.009 30.2538 380.876 34.4914 380.701C37.2463 380.586 39.2319 380.496 41.6137 380.386C45.853 380.191 51.2777 379.919 55.3243 379.697C57.0499 379.603 58.8092 379.505 60.6012 379.402C64.7486 379.165 69.4381 378.88 73.3539 378.627C73.3787 378.625 73.4035 378.624 73.4284 378.622C75.4515 378.492 77.5049 378.356 79.5677 378.217C86.072 377.777 92.2384 377.326 98.5993 376.831C101.912 376.572 105.428 376.289 108.982 375.993C110.85 375.837 112.686 375.68 114.526 375.521C115.53 375.434 116.552 375.345 117.585 375.254C141.655 373.128 165.097 370.608 189.003 367.536C212.98 364.447 236.337 360.938 260.065 356.768C283.535 352.64 307.115 347.883 330.362 342.417C444.197 313.238 582.592 272.678 624.847 152.191C632.965 123.824 623.713 92.9217 607.982 68.3582C596.368 50.3184 580.068 34.4704 561.078 24.4492C557.563 22.5905 553.964 20.9314 550.289 19.4858C533.829 13.0453 516.647 8.52261 498.976 5.88092C492.387 4.90613 485.595 4.19072 478.612 3.8283Z" fill="#BADA55"/>
</svg>
