<svg width="95" height="60" viewBox="0 0 95 60" fill="none" xmlns="http://www.w3.org/2000/svg">
<path d="M22.92 41.28C19.08 41.28 15.86 38.4 13.26 32.64C11.82 33.8 10 35.08 7.8 36.48C5.6 37.88 4.16 38.74 3.48 39.06C2.8 39.34 2.24 39.48 1.8 39.48C0.6 39.48 0 38.88 0 37.68C0 36.92 0.6 36.3 1.8 35.82C2.48 35.54 3.9 34.7 6.06 33.3C8.26 31.86 10.12 30.52 11.64 29.28C10.76 26.4 10.32 23.2 10.32 19.68C10.32 14.36 11.3 9.76 13.26 5.88C15.26 1.96 17.48 0 19.92 0C20.96 0 21.86 0.32 22.62 0.959999C23.38 1.6 23.94 2.4 24.3 3.36C24.98 5.2 25.32 7.2 25.32 9.36C25.32 11.52 25.08 13.72 24.6 15.96C24.12 18.16 23.54 20.02 22.86 21.54C22.22 23.06 21.44 24.48 20.52 25.8C19.16 27.76 17.74 29.34 16.26 30.54C18.42 35.3 20.64 37.68 22.92 37.68C24.48 37.68 26.16 37.38 27.96 36.78C29.76 36.18 30.72 35.88 30.84 35.88C32.04 35.88 32.64 36.48 32.64 37.68C32.64 38.56 32.04 39.2 30.84 39.6C27.48 40.72 24.84 41.28 22.92 41.28ZM19.92 3.6C19.24 3.6 18.36 4.44 17.28 6.12C15.04 9.64 13.92 14.16 13.92 19.68C13.92 22.48 14.22 24.94 14.82 27.06C16.14 25.82 17.36 24.22 18.48 22.26C20.64 18.5 21.72 14.04 21.72 8.88C21.72 7.72 21.56 6.56 21.24 5.4C20.92 4.2 20.48 3.6 19.92 3.6ZM44.6081 11.52C45.2481 11.52 45.9081 11.82 46.5881 12.42C47.2681 12.98 47.6081 13.58 47.6081 14.22C47.6081 14.82 47.3281 15.28 46.7681 15.6C46.2481 15.92 45.6681 16.08 45.0281 16.08C44.3881 16.08 43.8481 15.8 43.4081 15.24C43.0081 14.64 42.8081 14 42.8081 13.32C42.8081 12.12 43.4081 11.52 44.6081 11.52ZM39.2081 33.84C36.9681 36.24 34.6881 37.96 32.3681 39C31.6481 39.32 31.0681 39.48 30.6281 39.48C29.4281 39.48 28.8281 38.88 28.8281 37.68C28.8281 36.92 29.4281 36.3 30.6281 35.82C31.2681 35.58 32.1081 35.1 33.1481 34.38C34.2281 33.66 34.9481 33.12 35.3081 32.76C35.6681 32.4 36.2881 31.74 37.1681 30.78C38.0881 29.82 38.8081 29.1 39.3281 28.62C39.8481 28.1 40.5481 27.58 41.4281 27.06C42.3481 26.54 43.1881 26.28 43.9481 26.28C45.5081 26.28 46.7081 26.84 47.5481 27.96C48.3881 29.08 48.8881 30.32 49.0481 31.68C49.4881 35.28 50.1881 37.08 51.1481 37.08C51.9081 37.08 52.8881 36.88 54.0881 36.48C55.2881 36.08 55.9481 35.88 56.0681 35.88C57.2681 35.88 57.8681 36.48 57.8681 37.68C57.8681 38.56 57.2681 39.2 56.0681 39.6C53.9081 40.32 52.1481 40.68 50.7881 40.68C49.4681 40.68 48.3881 40.12 47.5481 39C46.7081 37.88 46.2081 36.64 46.0481 35.28C45.6081 31.68 44.9081 29.88 43.9481 29.88C43.4281 29.88 42.8281 30.22 42.1481 30.9C41.5081 31.54 40.9881 32.06 40.5881 32.46C40.1881 32.82 39.7281 33.28 39.2081 33.84ZM60.1435 23.28C58.9435 23.28 58.3435 22.68 58.3435 21.48C58.3435 20.28 58.9435 19.68 60.1435 19.68C66.4635 19.68 70.8435 20.16 73.2835 21.12C75.7235 22.08 76.9435 23.6 76.9435 25.68C76.9435 26.64 76.3435 28.54 75.1435 31.38C73.9435 34.18 73.3435 36.34 73.3435 37.86C73.3435 39.34 73.8835 40.96 74.9635 42.72C76.0835 44.52 77.1835 46.28 78.2635 48C79.3835 49.76 79.9435 51.36 79.9435 52.8C79.9435 55.04 79.1635 56.8 77.6035 58.08C76.0835 59.36 73.9835 60 71.3035 60C68.6635 60 66.4435 59.28 64.6435 57.84C62.8435 56.44 61.9435 54.78 61.9435 52.86C61.9435 50.94 62.6835 49.42 64.1635 48.3C65.6835 47.22 66.9435 46.68 67.9435 46.68C69.1435 46.68 69.7435 47.28 69.7435 48.48C69.7435 48.88 69.0235 49.52 67.5835 50.4C67.3835 50.52 67.2435 50.6 67.1635 50.64C67.0835 50.68 66.9635 50.76 66.8035 50.88C66.6435 51 66.5235 51.08 66.4435 51.12C66.4035 51.2 66.3035 51.3 66.1435 51.42C66.0235 51.54 65.9435 51.64 65.9035 51.72C65.8635 51.8 65.8035 51.9 65.7235 52.02C65.6035 52.18 65.5435 52.44 65.5435 52.8C65.5435 53.76 66.0635 54.6 67.1035 55.32C68.1835 56.04 69.6635 56.4 71.5435 56.4C74.7435 56.4 76.3435 55.22 76.3435 52.86C76.3435 52.02 75.7835 50.76 74.6635 49.08C73.5835 47.44 72.4835 45.58 71.3635 43.5C70.2835 41.46 69.7435 39.52 69.7435 37.68C69.7435 35.8 70.3435 33.42 71.5435 30.54C72.7435 27.66 73.3435 26.04 73.3435 25.68C73.3435 24.08 68.9435 23.28 60.1435 23.28ZM91.3692 36.72C92.0092 36.72 92.6692 37 93.3492 37.56C94.0292 38.12 94.3692 38.72 94.3692 39.36C94.3692 40 94.0892 40.48 93.5292 40.8C93.0092 41.12 92.4292 41.28 91.7892 41.28C91.1492 41.28 90.6092 41 90.1692 40.44C89.7692 39.84 89.5692 39.2 89.5692 38.52C89.5692 37.32 90.1692 36.72 91.3692 36.72ZM90.0492 23.4C90.6892 23.4 91.3492 23.68 92.0292 24.24C92.7092 24.8 93.0492 25.4 93.0492 26.04C93.0492 26.68 92.7692 27.16 92.2092 27.48C91.6892 27.8 91.1092 27.96 90.4692 27.96C89.8292 27.96 89.2892 27.68 88.8492 27.12C88.4492 26.52 88.2492 25.88 88.2492 25.2C88.2492 24 88.8492 23.4 90.0492 23.4Z" fill="#BADA55"/>
</svg>
